<?xml version="1.0" encoding="utf-8"?>
<!-- Generator: Adobe Illustrator 26.4.1, SVG Export Plug-In . SVG Version: 6.00 Build 0)  -->
<svg version="1.1" xmlns="http://www.w3.org/2000/svg" xmlns:xlink="http://www.w3.org/1999/xlink" x="0px" y="0px"
	 viewBox="0 0 107.5 110.4" style="enable-background:new 0 0 107.5 110.4;" xml:space="preserve">
<style type="text/css">
	.st0{display:none;}
	.st1{display:inline;}
	.st2{fill:#FFFFFF;}
	.st3{fill:#E45C52;}
	.st4{fill:#39405B;}
</style>
<g id="Layer_1" class="st0">
	<g class="st1">
		<path class="st2" d="M28.1,99.5c-6.6,0-11.9-5.3-11.9-11.9V74.8c-4.1-2-6.8-6.2-6.8-11c0-4.7,2.7-8.9,6.8-11V40.1
			c0-6.6,5.3-11.9,11.9-11.9h14.7c1.2-2.3,3.1-4.2,5.3-5.3v-2.1c-2.3-1.7-3.7-4.4-3.7-7.4c0-5.1,4.2-9.3,9.3-9.3
			c5.1,0,9.3,4.2,9.3,9.3c0,3-1.4,5.7-3.7,7.4v2.1c2.3,1.2,4.2,3.1,5.3,5.3l14.7,0c6.6,0,11.9,5.3,11.9,11.9v12.7
			c4.1,2,6.8,6.2,6.8,11c0,4.7-2.7,8.9-6.8,11l0,12.8c0,6.6-5.3,11.9-11.9,11.9L28.1,99.5z"/>
		<path class="st3" d="M53.7,8.1c2.9,0,5.3,2.4,5.3,5.3c0,2.3-1.5,4.3-3.7,5v7.3c3.3,0.6,5.9,3.2,6.5,6.5l17.5,0
			c4.4,0,7.9,3.5,7.9,7.9v15.6c3.8,0.7,6.8,4.1,6.8,8.1c0,4-2.9,7.4-6.8,8.1l0,15.6c0,4.4-3.5,7.9-7.9,7.9l-51.2,0
			c-4.4,0-7.9-3.5-7.9-7.9V72c-3.8-0.7-6.8-4.1-6.8-8.1c0-4,2.9-7.4,6.8-8.1V40.1c0-4.4,3.5-7.9,7.9-7.9h17.5
			c0.6-3.3,3.2-5.9,6.5-6.5v-7.3c-2.1-0.7-3.7-2.7-3.7-5C48.5,10.4,50.8,8.1,53.7,8.1 M53.7,0.1c-7.3,0-13.3,5.9-13.3,13.3
			c0,3,1,5.8,2.7,8.1c-1,0.8-1.8,1.8-2.6,2.8H28.1c-8.8,0-15.9,7.1-15.9,15.9v10.5c-4.1,3-6.8,7.8-6.8,13.2c0,5.4,2.6,10.2,6.8,13.2
			v10.5c0,8.8,7.1,15.9,15.9,15.9l51.2,0c8.8,0,15.9-7.1,15.9-15.9l0-10.5c4.1-3,6.8-7.8,6.8-13.2c0-5.4-2.6-10.2-6.8-13.2V40.1
			c0-8.8-7.1-15.9-15.9-15.9l-12.5,0c-0.8-1-1.6-2-2.6-2.8c1.7-2.3,2.7-5.1,2.7-8.1C67,6,61,0.1,53.7,0.1L53.7,0.1z"/>
	</g>
	<g class="st1">
		<path class="st3" d="M53.7,84.6c-5.6,0-10.2-4.6-10.2-10.2c0-1.3,1.1-2.4,2.4-2.4s2.4,1.1,2.4,2.4c0,3,2.5,5.5,5.5,5.5
			s5.5-2.5,5.5-5.5c0-1.3,1.1-2.4,2.4-2.4s2.4,1.1,2.4,2.4C64,80,59.4,84.6,53.7,84.6z"/>
		<path class="st3" d="M61.6,72.5c1,0,1.9,0.8,1.9,1.9c0,5.4-4.4,9.7-9.7,9.7h0c-5.4,0-9.7-4.4-9.7-9.7c0-1,0.8-1.9,1.9-1.9
			s1.9,0.8,1.9,1.9c0,3.3,2.7,6,6,6c3.3,0,6-2.7,6-6C59.8,73.3,60.6,72.5,61.6,72.5 M61.6,71.5c-1.6,0-2.9,1.3-2.9,2.9
			c0,2.8-2.3,5-5,5s-5-2.3-5-5c0-1.6-1.3-2.9-2.9-2.9S43,72.8,43,74.4c0,5.9,4.8,10.7,10.7,10.7c5.9,0,10.7-4.8,10.7-10.7
			C64.5,72.8,63.2,71.5,61.6,71.5L61.6,71.5z"/>
	</g>
	<g class="st1">
		<path class="st3" d="M45.9,58.3c-1.3,0-2.4-1.1-2.4-2.4c0-3-2.5-5.5-5.5-5.5s-5.5,2.5-5.5,5.5c0,1.3-1.1,2.4-2.4,2.4
			s-2.4-1.1-2.4-2.4c0-5.6,4.6-10.2,10.2-10.2c5.6,0,10.2,4.6,10.2,10.2c0,0.6-0.2,1.2-0.7,1.6C47.1,58,46.5,58.3,45.9,58.3z"/>
		<path class="st3" d="M38,46.2c5.4,0,9.7,4.4,9.7,9.7c0,1-0.8,1.9-1.8,1.9c-1,0-1.9-0.8-1.9-1.9c0-3.3-2.7-6-6-6c-3.3,0-6,2.7-6,6
			c0,1-0.8,1.9-1.9,1.9c-1,0-1.9-0.8-1.9-1.9C28.3,50.6,32.6,46.2,38,46.2 M45.9,57.8L45.9,57.8C45.9,57.8,45.9,57.8,45.9,57.8
			 M38,45.2c-5.9,0-10.7,4.8-10.7,10.7c0,1.6,1.3,2.9,2.9,2.9s2.9-1.3,2.9-2.9c0-2.8,2.3-5,5-5c2.8,0,5,2.3,5,5
			c0,1.6,1.3,2.9,2.9,2.9c0.8,0,1.5-0.3,2-0.9c0.5-0.5,0.8-1.3,0.8-2C48.7,50,43.9,45.2,38,45.2L38,45.2z"/>
	</g>
	<g class="st1">
		<path class="st3" d="M77.3,58.3c-1.3,0-2.4-1.1-2.4-2.4c0-3-2.5-5.5-5.5-5.5c-3,0-5.5,2.5-5.5,5.5c0,1.3-1.1,2.4-2.4,2.4
			s-2.4-1.1-2.4-2.4c0-5.6,4.6-10.2,10.2-10.2s10.2,4.6,10.2,10.2c0,0.6-0.2,1.2-0.6,1.6C78.6,58,78,58.3,77.3,58.3z"/>
		<path class="st3" d="M69.5,46.2c5.4,0,9.7,4.4,9.7,9.7c0,1-0.8,1.9-1.8,1.9c-1,0-1.9-0.8-1.9-1.9c0-3.3-2.7-6-6-6
			c-3.3,0-6,2.7-6,6c0,1-0.8,1.9-1.9,1.9c-1,0-1.9-0.8-1.9-1.9C59.7,50.6,64.1,46.2,69.5,46.2 M77.3,57.8L77.3,57.8
			C77.3,57.8,77.3,57.8,77.3,57.8 M69.5,45.2c-5.9,0-10.7,4.8-10.7,10.7c0,1.6,1.3,2.9,2.9,2.9s2.9-1.3,2.9-2.9c0-2.8,2.3-5,5-5
			s5,2.3,5,5c0,1.6,1.3,2.9,2.9,2.9c0.8,0,1.5-0.3,2-0.9c0.5-0.5,0.8-1.3,0.8-2C80.2,50,75.4,45.2,69.5,45.2L69.5,45.2z"/>
	</g>
</g>
<g id="Layer_1_copy">
	<g>
		<path class="st2" d="M28.1,99.5c-6.6,0-11.9-5.3-11.9-11.9V74.8c-4.1-2-6.8-6.2-6.8-11c0-4.7,2.7-8.9,6.8-11V40.1
			c0-6.6,5.3-11.9,11.9-11.9h14.7c1.2-2.3,3.1-4.2,5.3-5.3v-2.1c-2.3-1.7-3.7-4.4-3.7-7.4c0-5.1,4.2-9.3,9.3-9.3
			c5.1,0,9.3,4.2,9.3,9.3c0,3-1.4,5.7-3.7,7.4v2.1c2.3,1.2,4.2,3.1,5.3,5.3l14.7,0c6.6,0,11.9,5.3,11.9,11.9v12.7
			c4.1,2,6.8,6.2,6.8,11c0,4.7-2.7,8.9-6.8,11l0,12.8c0,6.6-5.3,11.9-11.9,11.9L28.1,99.5z"/>
		<path class="st4" d="M53.7,8.1c2.9,0,5.3,2.4,5.3,5.3c0,2.3-1.5,4.3-3.7,5v7.3c3.3,0.6,5.9,3.2,6.5,6.5l17.5,0
			c4.4,0,7.9,3.5,7.9,7.9v15.6c3.8,0.7,6.8,4.1,6.8,8.1c0,4-2.9,7.4-6.8,8.1l0,15.6c0,4.4-3.5,7.9-7.9,7.9l-51.2,0
			c-4.4,0-7.9-3.5-7.9-7.9V72c-3.8-0.7-6.8-4.1-6.8-8.1c0-4,2.9-7.4,6.8-8.1V40.1c0-4.4,3.5-7.9,7.9-7.9h17.5
			c0.6-3.3,3.2-5.9,6.5-6.5v-7.3c-2.1-0.7-3.7-2.7-3.7-5C48.5,10.4,50.8,8.1,53.7,8.1 M53.7,0.1c-7.3,0-13.3,5.9-13.3,13.3
			c0,3,1,5.8,2.7,8.1c-1,0.8-1.8,1.8-2.6,2.8H28.1c-8.8,0-15.9,7.1-15.9,15.9v10.5c-4.1,3-6.8,7.8-6.8,13.2c0,5.4,2.6,10.2,6.8,13.2
			v10.5c0,8.8,7.1,15.9,15.9,15.9l51.2,0c8.8,0,15.9-7.1,15.9-15.9l0-10.5c4.1-3,6.8-7.8,6.8-13.2c0-5.4-2.6-10.2-6.8-13.2V40.1
			c0-8.8-7.1-15.9-15.9-15.9l-12.5,0c-0.8-1-1.6-2-2.6-2.8c1.7-2.3,2.7-5.1,2.7-8.1C67,6,61,0.1,53.7,0.1L53.7,0.1z"/>
	</g>
	<g>
		<path class="st4" d="M53.7,84.6c-5.6,0-10.2-4.6-10.2-10.2c0-1.3,1.1-2.4,2.4-2.4s2.4,1.1,2.4,2.4c0,3,2.5,5.5,5.5,5.5
			s5.5-2.5,5.5-5.5c0-1.3,1.1-2.4,2.4-2.4s2.4,1.1,2.4,2.4C64,80,59.4,84.6,53.7,84.6z"/>
		<path class="st4" d="M61.6,72.5c1,0,1.9,0.8,1.9,1.9c0,5.4-4.4,9.7-9.7,9.7h0c-5.4,0-9.7-4.4-9.7-9.7c0-1,0.8-1.9,1.9-1.9
			s1.9,0.8,1.9,1.9c0,3.3,2.7,6,6,6c3.3,0,6-2.7,6-6C59.8,73.3,60.6,72.5,61.6,72.5 M61.6,71.5c-1.6,0-2.9,1.3-2.9,2.9
			c0,2.8-2.3,5-5,5s-5-2.3-5-5c0-1.6-1.3-2.9-2.9-2.9S43,72.8,43,74.4c0,5.9,4.8,10.7,10.7,10.7c5.9,0,10.7-4.8,10.7-10.7
			C64.5,72.8,63.2,71.5,61.6,71.5L61.6,71.5z"/>
	</g>
	<g>
		<path class="st4" d="M45.9,61.1c-1.3,0-2.4-1.1-2.4-2.4c0-3-2.5-5.5-5.5-5.5s-5.5,2.5-5.5,5.5c0,1.3-1.1,2.4-2.4,2.4
			s-2.4-1.1-2.4-2.4c0-5.6,4.6-10.2,10.2-10.2c5.6,0,10.2,4.6,10.2,10.2c0,0.6-0.2,1.2-0.7,1.6C47.1,60.9,46.5,61.1,45.9,61.1z"/>
		<path class="st4" d="M38,49c5.4,0,9.7,4.4,9.7,9.7c0,1-0.8,1.9-1.8,1.9c-1,0-1.9-0.8-1.9-1.9c0-3.3-2.7-6-6-6c-3.3,0-6,2.7-6,6
			c0,1-0.8,1.9-1.9,1.9c-1,0-1.9-0.8-1.9-1.9C28.3,53.4,32.6,49,38,49 M45.9,60.6L45.9,60.6C45.9,60.6,45.9,60.6,45.9,60.6 M38,48
			c-5.9,0-10.7,4.8-10.7,10.7c0,1.6,1.3,2.9,2.9,2.9s2.9-1.3,2.9-2.9c0-2.8,2.3-5,5-5c2.8,0,5,2.3,5,5c0,1.6,1.3,2.9,2.9,2.9
			c0.8,0,1.5-0.3,2-0.9c0.5-0.5,0.8-1.3,0.8-2C48.7,52.8,43.9,48,38,48L38,48z"/>
	</g>
	<g>
		<path class="st4" d="M77.3,61.1c-1.3,0-2.4-1.1-2.4-2.4c0-3-2.5-5.5-5.5-5.5c-3,0-5.5,2.5-5.5,5.5c0,1.3-1.1,2.4-2.4,2.4
			s-2.4-1.1-2.4-2.4c0-5.6,4.6-10.2,10.2-10.2s10.2,4.6,10.2,10.2c0,0.6-0.2,1.2-0.6,1.6C78.6,60.9,78,61.1,77.3,61.1z"/>
		<path class="st4" d="M69.5,49c5.4,0,9.7,4.4,9.7,9.7c0,1-0.8,1.9-1.8,1.9c-1,0-1.9-0.8-1.9-1.9c0-3.3-2.7-6-6-6c-3.3,0-6,2.7-6,6
			c0,1-0.8,1.9-1.9,1.9c-1,0-1.9-0.8-1.9-1.9C59.7,53.4,64.1,49,69.5,49 M77.3,60.6L77.3,60.6C77.3,60.6,77.3,60.6,77.3,60.6
			 M69.5,48c-5.9,0-10.7,4.8-10.7,10.7c0,1.6,1.3,2.9,2.9,2.9s2.9-1.3,2.9-2.9c0-2.8,2.3-5,5-5s5,2.3,5,5c0,1.6,1.3,2.9,2.9,2.9
			c0.8,0,1.5-0.3,2-0.9c0.5-0.5,0.8-1.3,0.8-2C80.2,52.8,75.4,48,69.5,48L69.5,48z"/>
	</g>
</g>
</svg>
